<svg width="16" height="21" viewBox="0 0 16 21" fill="none" xmlns="http://www.w3.org/2000/svg">
<path d="M4.77332 16.25C3.90248 16.25 3.1979 17.1125 3.1979 18.1667C3.1979 19.2209 3.90248 20.0834 4.77332 20.0834C5.64415 20.0834 6.35665 19.2209 6.35665 18.1667C6.35665 17.1125 5.64415 16.25 4.77332 16.25ZM0.0233154 0.916687V2.83335H1.60665L4.45665 10.1071L3.3879 12.455C3.26123 12.7234 3.18998 13.0396 3.18998 13.375C3.18998 14.4292 3.90248 15.2917 4.77332 15.2917H14.2733V13.375H5.10582C4.99498 13.375 4.9079 13.2696 4.9079 13.1354L4.93165 13.0204L5.64415 11.4584H11.5421C12.1358 11.4584 12.6583 11.0654 12.9275 10.4713L15.7616 4.25169C15.825 4.11752 15.8566 3.9546 15.8566 3.79169C15.8566 3.2646 15.5004 2.83335 15.065 2.83335H3.35623L2.61207 0.916687H0.0233154ZM12.69 16.25C11.8191 16.25 11.1146 17.1125 11.1146 18.1667C11.1146 19.2209 11.8191 20.0834 12.69 20.0834C13.5608 20.0834 14.2733 19.2209 14.2733 18.1667C14.2733 17.1125 13.5608 16.25 12.69 16.25Z" fill="#FBFADA"/>
</svg>
