<svg width="200" height="25" viewBox="0 0 200 25" fill="none" xmlns="http://www.w3.org/2000/svg">
<g clip-path="url(#clip0_13_36)">
<path d="M38.5955 15.3366L37.7481 15.3294L37.4496 14.9913C38.5086 13.5836 39.1516 11.7498 39.1627 9.74899C39.1874 5.28764 36.0861 1.64475 32.2355 1.61195C28.3848 1.57914 25.2436 5.16885 25.2189 9.6302C25.1942 14.0915 28.2955 17.7344 32.1461 17.7672C33.873 17.782 35.4645 17.0623 36.694 15.8548L36.9817 16.2053L36.9763 17.187L42.305 23.4339L43.9134 21.5958L38.5955 15.3366ZM32.1599 15.2818C29.4891 15.2591 27.347 12.7428 27.3641 9.64848C27.3812 6.55412 29.5509 4.07462 32.2217 4.09738C34.8925 4.12013 37.0346 6.63636 37.0175 9.73072C37.0004 12.8251 34.8307 15.3046 32.1599 15.2818Z" fill="#FBFADA"/>
</g>
<path d="M97.7733 18.25C96.9025 18.25 96.1979 19.1125 96.1979 20.1667C96.1979 21.2209 96.9025 22.0834 97.7733 22.0834C98.6441 22.0834 99.3566 21.2209 99.3566 20.1667C99.3566 19.1125 98.6441 18.25 97.7733 18.25ZM93.0233 2.91669V4.83335H94.6066L97.4566 12.1071L96.3879 14.455C96.2612 14.7234 96.19 15.0396 96.19 15.375C96.19 16.4292 96.9025 17.2917 97.7733 17.2917H107.273V15.375H98.1058C97.995 15.375 97.9079 15.2696 97.9079 15.1354L97.9316 15.0204L98.6441 13.4584H104.542C105.136 13.4584 105.658 13.0654 105.927 12.4713L108.762 6.25169C108.825 6.11752 108.857 5.9546 108.857 5.79169C108.857 5.2646 108.5 4.83335 108.065 4.83335H96.3562L95.6121 2.91669H93.0233ZM105.69 18.25C104.819 18.25 104.115 19.1125 104.115 20.1667C104.115 21.2209 104.819 22.0834 105.69 22.0834C106.561 22.0834 107.273 21.2209 107.273 20.1667C107.273 19.1125 106.561 18.25 105.69 18.25Z" fill="#FBFADA"/>
<path d="M153.857 24.9203H180.857V20.7802H153.857V24.9203ZM153.857 14.5701H180.857V10.4299H153.857V14.5701ZM153.857 0.0796509V4.21977H180.857V0.0796509H153.857Z" fill="#FBFADA"/>
<defs>
<clipPath id="clip0_13_36">
<rect width="26.8799" height="21.8949" fill="white" transform="translate(21.1434 1.55255)"/>
</clipPath>
</defs>
</svg>
