<svg width="200" height="25" viewBox="0 0 200 25" fill="none" xmlns="http://www.w3.org/2000/svg">
<g clip-path="url(#clip0_13_36)">
<path d="M40.0955 15.3366L39.2481 15.3294L38.9496 14.9913C40.0086 13.5836 40.6516 11.7498 40.6627 9.74899C40.6874 5.28764 37.5861 1.64475 33.7355 1.61195C29.8848 1.57914 26.7436 5.16885 26.7189 9.6302C26.6942 14.0915 29.7955 17.7344 33.6461 17.7672C35.373 17.782 36.9645 17.0623 38.194 15.8548L38.4817 16.2053L38.4763 17.187L43.805 23.4339L45.4134 21.5958L40.0955 15.3366ZM33.6599 15.2818C30.9891 15.2591 28.847 12.7428 28.8641 9.64848C28.8812 6.55412 31.0509 4.07462 33.7217 4.09738C36.3925 4.12013 38.5346 6.63636 38.5175 9.73072C38.5004 12.8251 36.3307 15.3046 33.6599 15.2818Z" fill="#FBFADA"/>
</g>
<path d="M99.2733 18.25C98.4025 18.25 97.6979 19.1125 97.6979 20.1667C97.6979 21.2209 98.4025 22.0834 99.2733 22.0834C100.144 22.0834 100.857 21.2209 100.857 20.1667C100.857 19.1125 100.144 18.25 99.2733 18.25ZM94.5233 2.91669V4.83335H96.1066L98.9566 12.1071L97.8879 14.455C97.7612 14.7234 97.69 15.0396 97.69 15.375C97.69 16.4292 98.4025 17.2917 99.2733 17.2917H108.773V15.375H99.6058C99.495 15.375 99.4079 15.2696 99.4079 15.1354L99.4316 15.0204L100.144 13.4584H106.042C106.636 13.4584 107.158 13.0654 107.427 12.4713L110.262 6.25169C110.325 6.11752 110.357 5.9546 110.357 5.79169C110.357 5.2646 110 4.83335 109.565 4.83335H97.8562L97.1121 2.91669H94.5233ZM107.19 18.25C106.319 18.25 105.615 19.1125 105.615 20.1667C105.615 21.2209 106.319 22.0834 107.19 22.0834C108.061 22.0834 108.773 21.2209 108.773 20.1667C108.773 19.1125 108.061 18.25 107.19 18.25Z" fill="#FBFADA"/>
<g clip-path="url(#clip1_13_36)">
<path d="M167.357 2.5C161.837 2.5 157.357 6.98 157.357 12.5C157.357 18.02 161.837 22.5 167.357 22.5C172.877 22.5 177.357 18.02 177.357 12.5C177.357 6.98 172.877 2.5 167.357 2.5ZM167.357 5.5C169.017 5.5 170.357 6.84 170.357 8.5C170.357 10.16 169.017 11.5 167.357 11.5C165.697 11.5 164.357 10.16 164.357 8.5C164.357 6.84 165.697 5.5 167.357 5.5ZM167.357 19.7C164.857 19.7 162.647 18.42 161.357 16.48C161.387 14.49 165.357 13.4 167.357 13.4C169.347 13.4 173.327 14.49 173.357 16.48C172.067 18.42 169.857 19.7 167.357 19.7Z" fill="#FBFADA"/>
</g>
<defs>
<clipPath id="clip0_13_36">
<rect width="26.8799" height="21.8949" fill="white" transform="translate(22.6434 1.55255)"/>
</clipPath>
<clipPath id="clip1_13_36">
<rect width="24" height="24" fill="white" transform="translate(155.357 0.5)"/>
</clipPath>
</defs>
</svg>
