<svg width="19" height="23" viewBox="0 0 19 23" fill="none" xmlns="http://www.w3.org/2000/svg">
<path d="M13.5955 14.3366L12.7481 14.3294L12.4496 13.9913C13.5086 12.5836 14.1516 10.7498 14.1627 8.74899C14.1874 4.28764 11.0861 0.644752 7.23545 0.611947C3.38482 0.579142 0.243557 4.16885 0.218892 8.6302C0.194228 13.0915 3.2955 16.7344 7.14614 16.7672C8.87302 16.782 10.4645 16.0623 11.694 14.8548L11.9817 15.2053L11.9763 16.187L17.305 22.4339L18.9134 20.5958L13.5955 14.3366ZM7.15988 14.2818C4.4891 14.2591 2.34699 11.7428 2.36409 8.64848C2.3812 5.55412 4.55094 3.07462 7.22171 3.09738C9.89248 3.12013 12.0346 5.63636 12.0175 8.73072C12.0004 11.8251 9.83065 14.3046 7.15988 14.2818Z" fill="#FBFADA"/>
</svg>
