<?xml version="1.0" encoding="iso-8859-1"?>
<!-- Uploaded to: SVG Repo, www.svgrepo.com, Generator: SVG Repo Mixer Tools -->
<svg fill="#000000" height="800px" width="800px" version="1.1" id="Layer_1" xmlns="http://www.w3.org/2000/svg" xmlns:xlink="http://www.w3.org/1999/xlink" 
	 viewBox="0 0 512 512" xml:space="preserve">
<g transform="translate(1 1)">
	<g>
		<g>
			<path d="M511,255c0-89.581-65.308-164.641-153.6-177.393V58.733c0-5.12-3.413-8.533-8.533-8.533H7.533
				C2.413,50.2-1,53.613-1,58.733v392.533c0,5.12,3.413,8.533,8.533,8.533h341.333c5.12,0,8.533-3.413,8.533-8.533v-18.98
				C446.076,419.208,511,344.319,511,255z M357.4,220.867c10.24,7.68,17.067,20.48,17.067,34.133
				c0,13.653-6.827,26.453-17.067,34.133V220.867z M340.333,442.733H16.067V67.267h324.267v17.92v122.027v96.427v121.173V442.733z
				 M357.4,414.573v-104.9c20.58-9.875,34.133-30.418,34.133-53.82s-13.554-43.945-34.133-53.82V94.573
				c78.507,12.8,136.533,80.213,136.533,159.573C493.933,335.213,435.907,402.627,357.4,414.573z"/>
			<path d="M41.667,246.467c5.12,0,8.533-3.413,8.533-8.533V101.4h42.667c5.12,0,8.533-3.413,8.533-8.533s-3.413-8.533-8.533-8.533
				h-51.2c-5.12,0-8.533,3.413-8.533,8.533v145.067C33.133,243.053,36.547,246.467,41.667,246.467z"/>
			<path d="M314.733,84.333H178.2c-5.12,0-8.533,3.413-8.533,8.533s3.413,8.533,8.533,8.533h128v51.2
				c0,5.12,3.413,8.533,8.533,8.533s8.533-3.413,8.533-8.533V92.867C323.267,87.747,319.853,84.333,314.733,84.333z"/>
			<path d="M178.2,408.6h-128v-85.333c0-5.12-3.413-8.533-8.533-8.533s-8.533,3.413-8.533,8.533v93.867
				c0,5.12,3.413,8.533,8.533,8.533H178.2c5.12,0,8.533-3.413,8.533-8.533C186.733,412.013,183.32,408.6,178.2,408.6z"/>
			<path d="M314.733,229.4c-5.12,0-8.533,3.413-8.533,8.533V408.6h-42.667c-5.12,0-8.533,3.413-8.533,8.533
				c0,5.12,3.413,8.533,8.533,8.533h51.2c5.12,0,8.533-3.413,8.533-8.533v-179.2C323.267,232.813,319.853,229.4,314.733,229.4z"/>
		</g>
	</g>
</g>
</svg>